<svg width="318" height="639" viewBox="0 0 318 639" fill="none" xmlns="http://www.w3.org/2000/svg">
<g clip-path="url(#clip0_14_156)">
<rect width="37.373" height="37.3246" transform="matrix(0.709202 -0.705006 -0.705006 -0.709202 289.495 172.819)" fill="#F6F6F6"/>
<rect width="12.472" height="12.4559" transform="matrix(0.709202 -0.705006 -0.705006 -0.709202 318 83.627)" fill="#F6F6F6"/>
<rect width="12.472" height="12.4559" transform="matrix(0.709202 -0.705006 -0.705006 -0.709202 318 582.627)" fill="#F6F6F6"/>
<rect width="37.373" height="37.3246" transform="matrix(0.709202 -0.705006 -0.705006 -0.709202 316.495 238.818)" fill="#F6F6F6"/>
<rect width="37.373" height="37.3246" transform="matrix(0.709202 -0.705006 -0.705006 -0.709202 316.495 462.818)" fill="#F6F6F6"/>
<rect width="56.3006" height="56.2276" transform="matrix(0.709202 -0.705006 -0.705006 -0.709202 230 252.568)" fill="#F6F6F6"/>
<rect width="56.3006" height="56.2276" transform="matrix(0.709202 -0.705006 -0.705006 -0.709202 230.071 475.569)" fill="#F6F6F6"/>
<rect width="37.462" height="37.4134" transform="matrix(0.709202 -0.705006 -0.705006 -0.709202 282.432 531.945)" fill="#F6F6F6"/>
<rect width="33.5818" height="33.5383" transform="matrix(0.709202 -0.705006 -0.705006 -0.709202 151.184 532.461)" fill="#F6F6F6"/>
<rect width="33.5818" height="33.5383" transform="matrix(0.709202 -0.705006 -0.705006 -0.709202 151.184 292.461)" fill="#F6F6F6"/>
<rect width="33.5818" height="33.5383" transform="matrix(0.709202 -0.705006 -0.705006 -0.709202 151.184 415.461)" fill="#F6F6F6"/>
<rect width="47.6382" height="47.5764" transform="matrix(0.709202 -0.705006 -0.705006 -0.709202 229.215 359.326)" fill="#F6F6F6"/>
<rect width="33.5818" height="33.5383" transform="matrix(0.709202 -0.705006 -0.705006 -0.709202 159.184 190.461)" fill="#F6F6F6"/>
<rect width="26.3115" height="26.2773" transform="matrix(0.709202 -0.705006 -0.705006 -0.709202 91.3398 468.186)" fill="#F6F6F6"/>
<rect width="26.3115" height="26.2773" transform="matrix(0.709202 -0.705006 -0.705006 -0.709202 91.3398 241.186)" fill="#F6F6F6"/>
<rect width="15.0812" height="125.765" transform="matrix(0.709202 -0.705006 -0.705006 -0.709202 318.156 341.767)" fill="#F6F6F6"/>
<rect width="101.103" height="19.7266" transform="matrix(0.709202 -0.705006 -0.705006 -0.709202 244.297 410.269)" fill="#F6F6F6"/>
</g>
<defs>
<clipPath id="clip0_14_156">
<rect width="318" height="639" fill="white" transform="matrix(-1 0 0 1 318 0)"/>
</clipPath>
</defs>
</svg>
