<svg width="318" height="639" viewBox="0 0 318 639" fill="none" xmlns="http://www.w3.org/2000/svg">
<g clip-path="url(#clip0_14_156)">
<rect x="28.505" y="172.819" width="37.373" height="37.3246" transform="rotate(-135.17 28.505 172.819)" fill="#F6F6F6"/>
<rect y="83.627" width="12.472" height="12.4559" transform="rotate(-135.17 0 83.627)" fill="#F6F6F6"/>
<rect y="582.627" width="12.472" height="12.4559" transform="rotate(-135.17 0 582.627)" fill="#F6F6F6"/>
<rect x="1.50488" y="238.818" width="37.373" height="37.3246" transform="rotate(-135.17 1.50488 238.818)" fill="#F6F6F6"/>
<rect x="1.50488" y="462.818" width="37.373" height="37.3246" transform="rotate(-135.17 1.50488 462.818)" fill="#F6F6F6"/>
<rect x="88" y="252.568" width="56.3006" height="56.2276" transform="rotate(-135.17 88 252.568)" fill="#F6F6F6"/>
<rect x="87.9287" y="475.569" width="56.3006" height="56.2276" transform="rotate(-135.17 87.9287 475.569)" fill="#F6F6F6"/>
<rect x="35.5681" y="531.945" width="37.462" height="37.4134" transform="rotate(-135.17 35.5681 531.945)" fill="#F6F6F6"/>
<rect x="166.816" y="532.461" width="33.5818" height="33.5383" transform="rotate(-135.17 166.816 532.461)" fill="#F6F6F6"/>
<rect x="166.816" y="292.461" width="33.5818" height="33.5383" transform="rotate(-135.17 166.816 292.461)" fill="#F6F6F6"/>
<rect x="166.816" y="415.461" width="33.5818" height="33.5383" transform="rotate(-135.17 166.816 415.461)" fill="#F6F6F6"/>
<rect x="88.7852" y="359.326" width="47.6382" height="47.5764" transform="rotate(-135.17 88.7852 359.326)" fill="#F6F6F6"/>
<rect x="158.816" y="190.461" width="33.5818" height="33.5383" transform="rotate(-135.17 158.816 190.461)" fill="#F6F6F6"/>
<rect x="226.66" y="468.186" width="26.3115" height="26.2773" transform="rotate(-135.17 226.66 468.186)" fill="#F6F6F6"/>
<rect x="226.66" y="241.186" width="26.3115" height="26.2773" transform="rotate(-135.17 226.66 241.186)" fill="#F6F6F6"/>
<rect x="-0.156372" y="341.767" width="15.0812" height="125.765" transform="rotate(-135.17 -0.156372 341.767)" fill="#F6F6F6"/>
<rect x="73.7026" y="410.269" width="101.103" height="19.7266" transform="rotate(-135.17 73.7026 410.269)" fill="#F6F6F6"/>
</g>
<defs>
<clipPath id="clip0_14_156">
<rect width="318" height="639" fill="white"/>
</clipPath>
</defs>
</svg>
