<svg width="30" height="30" viewBox="0 0 30 30" fill="none" xmlns="http://www.w3.org/2000/svg">
<path d="M15.0033 7.12452C10.7468 7.12452 7.31344 10.4722 7.31344 14.6226C7.31344 18.773 10.7468 22.1208 15.0033 22.1208C19.2599 22.1208 22.6933 18.773 22.6933 14.6226C22.6933 10.4722 19.2599 7.12452 15.0033 7.12452ZM15.0033 19.4974C12.2527 19.4974 10.0039 17.3113 10.0039 14.6226C10.0039 11.934 12.246 9.74788 15.0033 9.74788C17.7607 9.74788 20.0028 11.934 20.0028 14.6226C20.0028 17.3113 17.754 19.4974 15.0033 19.4974ZM24.8015 6.81781C24.8015 7.79015 23.9983 8.56672 23.0078 8.56672C22.0106 8.56672 21.2142 7.78362 21.2142 6.81781C21.2142 5.85199 22.0173 5.0689 23.0078 5.0689C23.9983 5.0689 24.8015 5.85199 24.8015 6.81781ZM29.8946 8.59282C29.7808 6.25007 29.232 4.17487 27.4718 2.46511C25.7184 0.755359 23.5901 0.220245 21.1874 0.102781C18.7111 -0.0342603 11.2889 -0.0342603 8.81261 0.102781C6.41662 0.213719 4.28834 0.748833 2.52817 2.45859C0.767987 4.16834 0.225878 6.24354 0.10541 8.5863C-0.0351366 11.0008 -0.0351366 18.2379 0.10541 20.6525C0.219186 22.9952 0.767987 25.0704 2.52817 26.7802C4.28834 28.4899 6.40993 29.025 8.81261 29.1425C11.2889 29.2795 18.7111 29.2795 21.1874 29.1425C23.5901 29.0316 25.7184 28.4965 27.4718 26.7802C29.2253 25.0704 29.7741 22.9952 29.8946 20.6525C30.0351 18.2379 30.0351 11.0074 29.8946 8.59282ZM26.6955 23.2432C26.1735 24.5223 25.1629 25.5076 23.8444 26.0232C21.8701 26.7867 17.1852 26.6105 15.0033 26.6105C12.8215 26.6105 8.12995 26.7802 6.1623 26.0232C4.85053 25.5142 3.83993 24.5288 3.31121 23.2432C2.52817 21.3181 2.70887 16.75 2.70887 14.6226C2.70887 12.4952 2.53486 7.92067 3.31121 6.00209C3.83324 4.72303 4.84384 3.73764 6.1623 3.2221C8.13664 2.45859 12.8215 2.63478 15.0033 2.63478C17.1852 2.63478 21.8767 2.46511 23.8444 3.2221C25.1562 3.73111 26.1668 4.71651 26.6955 6.00209C27.4785 7.92719 27.2978 12.4952 27.2978 14.6226C27.2978 16.75 27.4785 21.3246 26.6955 23.2432Z" fill="#0D1A39"/>
</svg>
