<svg width="29" height="39" viewBox="0 0 29 39" fill="none" xmlns="http://www.w3.org/2000/svg">
<path d="M13.0098 37.2518C2.0368 21.6107 0 20.0054 0 14.2571C0 6.38308 6.49185 0 14.5 0C22.5082 0 29 6.38308 29 14.2571C29 20.0054 26.9632 21.6107 15.9902 37.2518C15.2701 38.2746 13.7298 38.2745 13.0098 37.2518ZM14.5 20.1975C17.8367 20.1975 20.5417 17.5379 20.5417 14.2571C20.5417 10.9762 17.8367 8.31663 14.5 8.31663C11.1633 8.31663 8.45833 10.9762 8.45833 14.2571C8.45833 17.5379 11.1633 20.1975 14.5 20.1975Z" fill="#0D1A39"/>
</svg>
