<svg width="95" height="93" viewBox="0 0 95 93" fill="none" xmlns="http://www.w3.org/2000/svg">
<path d="M42.6154 36.5869C43.9731 37.8966 45.7583 38.5533 47.5435 38.5533C49.3287 38.5533 51.114 37.8966 52.4717 36.5869L65.2927 24.2196C68.0121 21.5964 68.0121 17.3314 65.2927 14.7121L52.4717 2.3448C49.7562 -0.278344 45.3269 -0.278344 42.6154 2.3448L29.7944 14.7121C27.075 17.3353 27.075 21.6002 29.7944 24.2196L42.6154 36.5869ZM32.5929 17.4116L45.414 5.0443C45.9998 4.4792 46.7717 4.19283 47.5435 4.19283C48.3154 4.19283 49.0873 4.47538 49.6731 5.0443L62.4942 17.4116C63.6698 18.5456 63.6698 20.386 62.4942 21.5201L49.6731 33.8874C48.4975 35.0214 46.5896 35.0214 45.414 33.8874L32.5929 21.5201C31.4173 20.386 31.4173 18.5456 32.5929 17.4116ZM95 21.375V59.9432C95 67.5911 91.9125 74.7809 86.3075 80.1913L74.6304 91.4552C74.2425 91.8294 73.7358 92.0127 73.2292 92.0127C72.7225 92.0127 72.2158 91.8256 71.8279 91.4552C71.056 90.7106 71.056 89.5003 71.8279 88.7557L83.505 77.4918C88.3658 72.803 91.0377 66.5716 91.0377 59.9432V21.375C91.0377 18.2173 88.3737 15.6476 85.1002 15.6476C81.8267 15.6476 79.1627 18.2173 79.1627 21.375C79.1627 21.375 79.1548 52.0852 79.1429 52.1654C79.0875 54.2578 78.3235 56.3387 76.851 58.0302L66.405 68.5151C66.0171 68.9046 65.4985 69.0993 64.98 69.0993C64.4852 69.0993 63.9904 68.9237 63.6065 68.5648C62.8187 67.8355 62.795 66.6251 63.551 65.8653L73.906 55.4758C76.6294 52.8488 74.6542 49.1222 73.6883 48.0875C72.6315 46.9535 71.1787 46.2776 69.6033 46.1936C68.0596 46.1211 66.5079 46.6251 65.3283 47.6446L54.526 57.236C52.4835 59.0459 50.8487 61.1803 49.6494 63.582C50.825 66.4571 51.4544 69.5461 51.4544 72.6885V90.0959C51.4544 91.1497 50.5677 92.005 49.4752 92.005C48.3827 92.005 47.496 91.1497 47.496 90.0959V72.6885C47.496 66.8351 44.935 61.1994 40.466 57.2322L29.644 47.6255C28.4881 46.6213 26.9642 46.1173 25.3888 46.1936C23.8133 46.2776 22.3567 46.9496 21.3037 48.0875C19.3483 50.1913 19.2929 53.4101 21.1771 55.5713L31.445 65.8614C32.201 66.6213 32.1813 67.8317 31.3896 68.561C30.6098 69.2902 29.3471 69.2711 28.591 68.5075L18.236 58.118C16.7437 56.4113 15.964 54.3456 15.8729 52.2761C15.8492 52.1577 15.8373 21.3635 15.8373 21.3635C15.8373 18.2058 13.1733 15.6361 9.89979 15.6361C6.62625 15.6361 3.96229 18.2058 3.96229 21.3635V59.9432C3.96229 66.5716 6.63812 72.803 11.495 77.4918L23.1721 88.7557C23.944 89.5003 23.944 90.7106 23.1721 91.4552C22.7842 91.8294 22.2775 92.0127 21.7708 92.0127C21.2642 92.0127 20.7575 91.8256 20.3696 91.4552L8.6925 80.1913C3.0875 74.7809 0 67.5911 0 59.9432V21.375C0 16.1134 4.43729 11.8293 9.89583 11.8293C15.3544 11.8293 19.7917 16.1134 19.7917 21.375V44.273C21.3394 43.1505 23.1958 42.4937 25.171 42.3906C27.8271 42.2303 30.3446 43.1085 32.3079 44.8076L43.1498 54.4334C44.836 55.9302 46.2927 57.6331 47.496 59.4773C48.7033 57.6255 50.16 55.9378 51.8502 54.4334L62.6723 44.8267C64.6594 43.1085 67.1848 42.2265 69.829 42.3945C71.8081 42.4976 73.6646 43.1543 75.2083 44.2769V21.375C75.2083 16.1134 79.6456 11.8293 85.1042 11.8293C90.5627 11.8293 95 16.1134 95 21.375Z" fill="#EEB841"/>
</svg>
