<svg width="94" height="93" viewBox="0 0 94 93" fill="none" xmlns="http://www.w3.org/2000/svg">
<path d="M92.9033 36.2297C93.6475 39.4751 94 42.8351 94 46.1951C94 71.4711 72.9283 92.0127 47 92.0127C21.0717 92.0127 0 71.4711 0 46.1951C0 20.919 21.0717 0.377441 47 0.377441C50.4467 0.377441 53.8933 0.759255 57.2225 1.44652C58.28 1.67561 58.9458 2.7065 58.7108 3.7374C58.4758 4.7683 57.4183 5.41738 56.3608 5.18829C53.3058 4.53921 50.1333 4.19558 47 4.19558C23.2258 4.19558 3.91667 23.019 3.91667 46.1951C3.91667 69.3711 23.2258 88.1945 47 88.1945C70.7742 88.1945 90.0833 69.3711 90.0833 46.1951C90.0833 43.1024 89.7308 40.0479 89.065 37.0697C88.83 36.0388 89.4958 35.0079 90.5533 34.7788C91.6108 34.5497 92.6683 35.1988 92.9033 36.2297ZM52.4833 20.0027C53.5408 20.1936 54.5592 19.5445 54.7942 18.5136C54.99 17.4827 54.3242 16.49 53.2667 16.2609C51.23 15.8409 49.115 15.65 47 15.65C29.7275 15.65 15.6667 29.3571 15.6667 46.1951C15.6667 63.033 29.7275 76.7401 47 76.7401C64.2725 76.7401 78.3333 63.033 78.3333 46.1951C78.3333 44.1333 78.1375 42.0715 77.7067 40.086C77.5108 39.0551 76.4533 38.4061 75.3958 38.597C74.3383 38.8261 73.6333 39.8188 73.8683 40.8497C74.2208 42.606 74.4167 44.4005 74.4167 46.1951C74.4167 60.9331 62.1183 72.922 47 72.922C31.8817 72.922 19.5833 60.9331 19.5833 46.1951C19.5833 31.4571 31.8817 19.4681 47 19.4681C48.8408 19.4681 50.6817 19.659 52.4833 20.0027ZM45.3158 34.8552C46.3733 34.7025 47.1175 33.7479 46.9608 32.6789C46.8042 31.6098 45.825 30.8843 44.7283 31.0752C37.0517 32.1443 31.2942 38.6351 31.2942 46.1951C31.2942 54.6331 38.305 61.4676 46.9608 61.4676C54.7158 61.4676 61.3742 55.8549 62.4708 48.3714C62.6275 47.3405 61.8833 46.3478 60.8258 46.1951C59.7683 46.0423 58.75 46.7678 58.5933 47.7987C57.7708 53.4113 52.7575 57.6113 46.9608 57.6113C40.4983 57.6113 35.2108 52.4568 35.2108 46.1569C35.2108 40.506 39.5192 35.6188 45.2767 34.817L45.3158 34.8552ZM62.6667 28.2116V16.91C62.6667 14.3518 63.685 11.9464 65.5258 10.1519L75.0042 0.950162C75.5525 0.415623 76.4142 0.224716 77.1192 0.530167C77.8633 0.835618 78.3333 1.52288 78.3333 2.28651V15.65H92.0417C92.825 15.65 93.53 16.1082 93.8433 16.8336C94.1567 17.559 93.9608 18.3609 93.4125 18.8954L83.9733 28.0971C82.1325 29.8916 79.665 30.8843 77.0408 30.8843H65.4475L48.41 47.4932C48.0183 47.875 47.5092 48.0659 47.0392 48.0659C46.5692 48.0659 46.0208 47.875 45.6683 47.4932C44.885 46.7296 44.885 45.546 45.6683 44.7823L62.7058 28.1735L62.6667 28.2116ZM66.5833 27.1044H77.0408C78.6075 27.1044 80.0958 26.4935 81.1925 25.4244L87.3025 19.4681H76.375C75.2783 19.4681 74.4167 18.6281 74.4167 17.559V6.90645L68.3067 12.8627C67.21 13.9318 66.5833 15.3827 66.5833 16.91V27.1044Z" fill="#EEB841"/>
</svg>
