<svg width="25" height="25" viewBox="0 0 25 25" fill="none" xmlns="http://www.w3.org/2000/svg">
<path d="M24.0923 1.17147L19.0142 0.0290746C18.4624 -0.0946847 17.896 0.186154 17.6714 0.690711L15.3277 6.02188C15.1226 6.48836 15.2593 7.03576 15.6646 7.35468L18.6236 9.71562C16.8657 13.3665 13.7945 16.4034 9.97121 18.1503L7.54934 15.2658C7.21731 14.8707 6.66066 14.7374 6.18215 14.9373L0.713399 17.2221C0.190938 17.4458 -0.0971477 17.998 0.0298055 18.5359L1.20168 23.4862C1.32375 24.0003 1.7925 24.3716 2.34426 24.3716C14.8491 24.3716 25.0005 14.4946 25.0005 2.2853C25.0005 1.75219 24.6245 1.29047 24.0923 1.17147Z" fill="#0D1A39"/>
</svg>
