<svg width="35" height="27" viewBox="0 0 35 27" fill="none" xmlns="http://www.w3.org/2000/svg">
<path d="M31.4024 6.5596C31.4246 6.84747 31.4246 7.1354 31.4246 7.42327C31.4246 16.2037 24.207 26.3208 11.0153 26.3208C6.95115 26.3208 3.17578 25.2309 0 23.3391C0.577434 23.4008 1.13258 23.4214 1.73223 23.4214C5.08562 23.4214 8.1726 22.3727 10.6377 20.5837C7.48415 20.522 4.84137 18.6096 3.93082 15.9775C4.37502 16.0392 4.81915 16.0803 5.28557 16.0803C5.92958 16.0803 6.57367 15.998 7.17325 15.8542C3.88645 15.2372 1.42127 12.564 1.42127 9.33563V9.25341C2.37618 9.74693 3.48668 10.0554 4.66363 10.0964C2.73151 8.90376 1.4657 6.86804 1.4657 4.56496C1.4657 3.3312 1.82096 2.20023 2.44283 1.21319C5.97395 5.24355 11.2817 7.87559 17.2335 8.16352C17.1225 7.67 17.0558 7.15598 17.0558 6.64189C17.0558 2.98161 20.2538 0 24.229 0C26.2944 0 28.1599 0.801959 29.4702 2.09743C31.0913 1.80957 32.6459 1.25433 34.0229 0.493518C33.4898 2.03578 32.3572 3.33126 30.8693 4.15373C32.3129 4.00986 33.712 3.63964 35 3.12561C34.023 4.4416 32.8015 5.61365 31.4024 6.5596Z" fill="#0D1A39"/>
</svg>
