<svg width="318" height="639" viewBox="0 0 318 639" fill="none" xmlns="http://www.w3.org/2000/svg">
<g clip-path="url(#clip0_1_41)">
<rect x="43" y="162.807" width="37.373" height="37.3246" transform="rotate(-135.17 43 162.807)" fill="white"/>
<rect y="83.627" width="12.472" height="12.4559" transform="rotate(-135.17 0 83.627)" fill="white"/>
<rect y="582.627" width="12.472" height="12.4559" transform="rotate(-135.17 0 582.627)" fill="white"/>
<rect x="1.50488" y="238.818" width="37.373" height="37.3246" transform="rotate(-135.17 1.50488 238.818)" fill="white"/>
<rect x="1.50488" y="462.818" width="37.373" height="37.3246" transform="rotate(-135.17 1.50488 462.818)" fill="white"/>
<rect x="88" y="252.568" width="56.3006" height="56.2276" transform="rotate(-135.17 88 252.568)" fill="white"/>
<rect x="87.9287" y="475.569" width="56.3006" height="56.2276" transform="rotate(-135.17 87.9287 475.569)" fill="white"/>
<rect x="42.5679" y="541.945" width="37.462" height="37.4134" transform="rotate(-135.17 42.5679 541.945)" fill="white"/>
<rect x="168" y="523.461" width="33.5818" height="33.5383" transform="rotate(-135.17 168 523.461)" fill="white"/>
<rect x="168" y="286.461" width="33.5818" height="33.5383" transform="rotate(-135.17 168 286.461)" fill="white"/>
<rect x="168" y="410.461" width="33.5818" height="33.5383" transform="rotate(-135.17 168 410.461)" fill="white"/>
<rect x="88.7852" y="359.326" width="47.6382" height="47.5764" transform="rotate(-135.17 88.7852 359.326)" fill="white"/>
<rect x="168" y="181.461" width="33.5818" height="33.5383" transform="rotate(-135.17 168 181.461)" fill="white"/>
<rect x="222.66" y="457.186" width="26.3115" height="26.2773" transform="rotate(-135.17 222.66 457.186)" fill="white"/>
<rect x="222.66" y="231.186" width="26.3115" height="26.2773" transform="rotate(-135.17 222.66 231.186)" fill="white"/>
<rect x="-0.156372" y="341.767" width="15.0812" height="125.765" transform="rotate(-135.17 -0.156372 341.767)" fill="white"/>
<rect x="73.7025" y="410.269" width="101.103" height="19.7266" transform="rotate(-135.17 73.7025 410.269)" fill="white"/>
</g>
<defs>
<clipPath id="clip0_1_41">
<rect width="318" height="639" fill="white"/>
</clipPath>
</defs>
</svg>
