<svg width="175" height="352" viewBox="0 0 175 352" fill="none" xmlns="http://www.w3.org/2000/svg">
<g clip-path="url(#clip0_1_40)">
<rect width="20.5771" height="20.5505" transform="matrix(-0.708852 -0.705357 0.704654 -0.709551 23.6636 89.6838)" fill="#EEB841"/>
<rect width="6.86693" height="6.85806" transform="matrix(-0.708852 -0.705357 0.704654 -0.709551 0 46.0668)" fill="#1C4CBA"/>
<rect width="6.86692" height="6.85806" transform="matrix(-0.708852 -0.705357 0.704654 -0.709551 0 320.946)" fill="#1C4CBA"/>
<rect width="20.5771" height="20.5505" transform="matrix(-0.708852 -0.705357 0.704654 -0.709551 0.828125 131.556)" fill="#1C4CBA"/>
<rect width="20.5771" height="20.5505" transform="matrix(-0.708852 -0.705357 0.704654 -0.709551 0.828125 254.948)" fill="#1C4CBA"/>
<rect width="30.9983" height="30.9583" transform="matrix(-0.708852 -0.705357 0.704654 -0.709551 48.4277 139.13)" fill="#EEB841"/>
<rect width="30.9983" height="30.9583" transform="matrix(-0.708852 -0.705357 0.704654 -0.709551 48.3884 261.972)" fill="#EEB841"/>
<rect width="20.626" height="20.5994" transform="matrix(-0.708852 -0.705357 0.704654 -0.709551 23.4257 298.536)" fill="#EEB841"/>
<rect width="18.4897" height="18.4658" transform="matrix(-0.708852 -0.705358 0.704654 -0.709552 92.4529 288.354)" fill="#EEB841"/>
<rect width="18.4897" height="18.4658" transform="matrix(-0.708852 -0.705357 0.704654 -0.709551 92.4529 157.8)" fill="#274487"/>
<rect width="18.4897" height="18.4658" transform="matrix(-0.708852 -0.705358 0.704654 -0.709552 92.4529 226.107)" fill="#274487"/>
<rect width="26.229" height="26.1951" transform="matrix(-0.708852 -0.705357 0.704654 -0.709551 48.8597 197.939)" fill="#D9D9D9"/>
<rect width="18.4897" height="18.4658" transform="matrix(-0.708852 -0.705357 0.704654 -0.709551 92.4529 99.9597)" fill="#EEB841"/>
<rect width="14.4867" height="14.468" transform="matrix(-0.708852 -0.705358 0.704654 -0.709552 122.533 251.846)" fill="#D9D9D9"/>
<rect width="14.4867" height="14.468" transform="matrix(-0.708852 -0.705357 0.704654 -0.709551 122.533 127.351)" fill="#D9D9D9"/>
<rect width="8.30348" height="69.2448" transform="matrix(-0.708852 -0.705357 0.704654 -0.709551 -0.0860596 188.266)" fill="#EEB841"/>
<rect width="55.666" height="10.8613" transform="matrix(-0.708852 -0.705357 0.704654 -0.709551 40.5596 226.001)" fill="#EEB841"/>
</g>
<defs>
<clipPath id="clip0_1_40">
<rect width="175" height="352" fill="white"/>
</clipPath>
</defs>
</svg>
